{
	"asset":{
		"generator":"Khronos glTF Blender I/O v4.4.56",
		"version":"2.0"
	},
	"scene":0,
	"scenes":[
		{
			"name":"Scene",
			"nodes":[
				1
			]
		}
	],
	"nodes":[
		{
			"mesh":0,
			"name":"_MeshInstance3D_24434",
			"rotation":[
				0,
				0.7071068286895752,
				0,
				0.7071067094802856
			],
			"scale":[
				1,
				1,
				17.067298889160156
			]
		},
		{
			"children":[
				0
			],
			"name":"Stairs3D"
		}
	],
	"materials":[
		{
			"name":"Material_0"
		},
		{
			"name":"Material_1"
		},
		{
			"name":"Material_2"
		}
	],
	"meshes":[
		{
			"name":"Mesh_0",
			"primitives":[
				{
					"attributes":{
						"POSITION":0,
						"NORMAL":1
					},
					"indices":2,
					"material":0
				},
				{
					"attributes":{
						"POSITION":3,
						"NORMAL":4
					},
					"indices":2,
					"material":1
				},
				{
					"attributes":{
						"POSITION":5,
						"NORMAL":6
					},
					"indices":7,
					"material":2
				}
			]
		}
	],
	"accessors":[
		{
			"bufferView":0,
			"componentType":5126,
			"count":240,
			"max":[
				2,
				10,
				0
			],
			"min":[
				-2,
				0,
				-0.983862042427063
			],
			"type":"VEC3"
		},
		{
			"bufferView":1,
			"componentType":5126,
			"count":240,
			"type":"VEC3"
		},
		{
			"bufferView":2,
			"componentType":5123,
			"count":240,
			"type":"SCALAR"
		},
		{
			"bufferView":3,
			"componentType":5126,
			"count":240,
			"max":[
				2,
				10,
				0
			],
			"min":[
				-2,
				0.25,
				-1
			],
			"type":"VEC3"
		},
		{
			"bufferView":4,
			"componentType":5126,
			"count":240,
			"type":"VEC3"
		},
		{
			"bufferView":5,
			"componentType":5126,
			"count":960,
			"max":[
				2,
				10,
				0
			],
			"min":[
				-2,
				0,
				-1
			],
			"type":"VEC3"
		},
		{
			"bufferView":6,
			"componentType":5126,
			"count":960,
			"type":"VEC3"
		},
		{
			"bufferView":7,
			"componentType":5123,
			"count":960,
			"type":"SCALAR"
		}
	],
	"bufferViews":[
		{
			"buffer":0,
			"byteLength":2880,
			"byteOffset":0,
			"target":34962
		},
		{
			"buffer":0,
			"byteLength":2880,
			"byteOffset":2880,
			"target":34962
		},
		{
			"buffer":0,
			"byteLength":480,
			"byteOffset":5760,
			"target":34963
		},
		{
			"buffer":0,
			"byteLength":2880,
			"byteOffset":6240,
			"target":34962
		},
		{
			"buffer":0,
			"byteLength":2880,
			"byteOffset":9120,
			"target":34962
		},
		{
			"buffer":0,
			"byteLength":11520,
			"byteOffset":12000,
			"target":34962
		},
		{
			"buffer":0,
			"byteLength":11520,
			"byteOffset":23520,
			"target":34962
		},
		{
			"buffer":0,
			"byteLength":1920,
			"byteOffset":35040,
			"target":34963
		}
	],
	"buffers":[
		{
			"byteLength":36960,
			"uri":"stairs_scaled.bin"
		}
	]
}
